<?xml version="1.0" encoding="UTF-8" standalone="no"?>
<!-- Created with Inkscape (http://www.inkscape.org/) -->

<svg
   xmlns:dc="http://purl.org/dc/elements/1.1/"
   xmlns:cc="http://creativecommons.org/ns#"
   xmlns:rdf="http://www.w3.org/1999/02/22-rdf-syntax-ns#"
   xmlns:svg="http://www.w3.org/2000/svg"
   xmlns="http://www.w3.org/2000/svg"
   xmlns:xlink="http://www.w3.org/1999/xlink"
   xmlns:sodipodi="http://sodipodi.sourceforge.net/DTD/sodipodi-0.dtd"
   xmlns:inkscape="http://www.inkscape.org/namespaces/inkscape"
   id="svg4178"
   version="1.1"
   inkscape:version="0.91 r13725"
   xml:space="preserve"
   width="845.11261"
   height="333.85208"
   viewBox="0 0 845.11261 333.85208"
   sodipodi:docname="Logo.svg"
   inkscape:export-filename="/Users/ddompe/GulnVKonCept/LogoRect.png"
   inkscape:export-xdpi="34.080002"
   inkscape:export-ydpi="34.080002"><metadata
     id="metadata4184"><rdf:RDF><cc:Work
         rdf:about=""><dc:format>image/svg+xml</dc:format><dc:type
           rdf:resource="http://purl.org/dc/dcmitype/StillImage" /><dc:title></dc:title></cc:Work></rdf:RDF></metadata><defs
     id="defs4182"><linearGradient
       id="linearGradient4204"
       spreadMethod="pad"
       gradientTransform="matrix(8032.87,-12447.3,-12447.3,-8032.87,22049.5,26093.7)"
       gradientUnits="userSpaceOnUse"
       y2="0"
       x2="1"
       y1="0"
       x1="0"
       xlink:href="#linearGradient5573"><stop
         id="stop5569"
         offset="0"
         style="stop-opacity:1;stop-color:#d1c075" /><stop
         id="stop5571"
         offset="1"
         style="stop-opacity:1;stop-color:#9f8554" /></linearGradient><clipPath
       clipPathUnits="userSpaceOnUse"
       id="clipPath4198"><path
         d="m 32787.5,21718.4 c -924.6,1305 -2431.4,2083.9 -4031.8,2083.9 -230.1,0 -447.3,-24.2 -658.5,-59.2 -69.8,-261.7 -159.2,-510.2 -263.7,-747.1 289.2,82.4 594.9,129 923.4,129.1 1298.9,0 2526.9,-595.7 3332.1,-1604.4 -805,-1008.8 -2033.2,-1604.4 -3332.1,-1604.5 l -0.9,0 c -942.3,0.2 -1698.3,383 -2406.6,910.7 -86.5,-98.7 -172.4,-195.8 -256.3,-290.2 l -29.4,-33 c -118.2,-132.3 -234.1,-262.4 -347.7,-391.6 317.2,-399.3 606.4,-806.5 833.9,-1239 l -1818.9,0 c -161,-240 -300.3,-482.9 -413.3,-732.2 l 2547.5,0 c 107.7,-319.7 181.8,-654.5 211.6,-1010.7 l -3047,0 c -14,-119.5 -23.8,-240.4 -23.8,-364.8 0,-123.2 5.3,-245.8 15.7,-367.5 l 3048.5,0 c -23.6,-343.6 -74.1,-681.9 -160.4,-1010.6 l -2676.2,0 c 85.1,-253.5 191.7,-499 321.7,-732.3 l 2101.2,0 c -355.9,-844.6 -921.5,-1593 -1656.5,-2170.5 -1310.5,1029.6 -2092.1,2606.2 -2092.8,4282.2 -0.5,1709 981.5,2939 2092.8,4195.7 0.4,-0.5 0.8,-1 1.3,-1.5 89.4,101.4 177.1,202.4 267.9,304.4 3.7,3.7 3.7,3.7 3.7,3.7 564,632.7 1136.4,1279 1502.5,2046.4 238.9,500 391.8,1049.9 392,1683 0,1195.1 -972.2,2167.3 -2167.4,2167.3 -1195.2,0 -2167.5,-972.2 -2167.5,-2167.3 l 0,-0.1 0,-0.1 c 0.2,-648.2 159.1,-1209.9 407.9,-1719.2 -587.4,316.4 -1237.7,523.3 -1997.3,523.3 -1599.9,-0.3 -3106.7,-780.2 -4030.6,-2086 -83,-117.1 -83,-273.9 0,-391.2 923.7,-1305.8 2430.5,-2085.6 4030.4,-2086.2 0.2,0 0.9,0 0.9,0 l 0.4,0 0.5,0 c 124.1,0 242.1,11.5 360.5,22.1 113.3,258.2 240.7,506.7 379.7,745.9 -235.6,-54.1 -479.2,-90.7 -740.2,-90.7 l -0.5,0 -0.9,0 c -1298.7,0.5 -2526.2,596 -3330.9,1604.5 804.7,1008.5 2032.4,1604 3331.8,1604.4 941.4,0 1698.2,-387.2 2410,-920.7 83.5,94.2 166.7,187.6 249.3,280.2 l 106.2,117.1 c 102.6,116 199,226.6 291.1,334.2 -431.3,610.2 -735.7,1264.4 -736.1,2062.5 0.1,791.3 643.8,1435 1435.3,1435 791.3,0 1435,-643.7 1435.1,-1435 -0.4,-1162.7 -640.7,-2022.4 -1390.8,-2881.9 0,-0.9 0,-1.8 0.1,-2.6 -104,-119.1 -210.1,-238.1 -317.1,-358 -3.6,0 -3.6,-3.6 -3.6,-3.6 -595.9,-669 -1200.5,-1349.5 -1671.9,-2107.5 -519.1,-834.9 -877.2,-1763.5 -876.9,-2878.4 0.7,-2004 977.8,-3891.7 2613.6,-5049.5 10.2,-7.2 21.8,-10.1 32.4,-16.1 11,-6.2 21.3,-11.2 32.8,-16.2 47.2,-20.8 96.2,-34.9 145.9,-34.9 0,0 0.3,0.1 0.4,0.1 0,0 0.2,-0.1 0.4,-0.1 49.7,0 98.7,14.1 145.9,34.9 11.5,5 21.8,10 32.8,16.2 10.6,6 22.2,8.9 32.4,16.1 1635.1,1157.2 2611.9,3043.8 2613.3,5046.7 0,0 0.1,0.3 0.1,0.5 0,0 -0.1,0.2 -0.1,0.3 0,0.6 0.1,1.3 0.1,2 0.2,691.4 -138.2,1310.9 -366,1881.6 -0.4,1 -0.8,1.9 -1.2,2.8 -142.6,356.6 -320.7,693.8 -523.2,1016.9 540.6,-262.4 1136.4,-428.6 1821.3,-428.8 l 1.1,0 c 1599.2,0 3106,779.2 4030.6,2083.9 40.6,57.2 62.2,129.8 62.2,199.9 0,70.1 -21.6,138.5 -62.2,195.7 z"
         id="path4200"
         inkscape:connector-curvature="0" /></clipPath><linearGradient
       x1="0"
       y1="0"
       x2="1"
       y2="0"
       gradientUnits="userSpaceOnUse"
       gradientTransform="matrix(8032.87,-12447.3,-12447.3,-8032.87,22049.5,26093.7)"
       spreadMethod="pad"
       id="linearGradient5573"><stop
         style="stop-opacity:1;stop-color:#d1c075"
         offset="0"
         id="stop4206" /><stop
         style="stop-opacity:1;stop-color:#9f8554"
         offset="1"
         id="stop4208" /></linearGradient></defs><sodipodi:namedview
     pagecolor="#ffffff"
     bordercolor="#666666"
     borderopacity="1"
     objecttolerance="10"
     gridtolerance="10"
     guidetolerance="10"
     inkscape:pageopacity="0"
     inkscape:pageshadow="2"
     inkscape:window-width="1909"
     inkscape:window-height="1122"
     id="namedview4180"
     showgrid="false"
     inkscape:zoom="0.6"
     inkscape:cx="63.803567"
     inkscape:cy="-5.8895795"
     inkscape:window-x="5"
     inkscape:window-y="13"
     inkscape:window-maximized="0"
     inkscape:current-layer="g4186"
     fit-margin-left="10"
     fit-margin-top="10"
     fit-margin-bottom="10"
     fit-margin-right="30" /><g
     id="g4186"
     inkscape:groupmode="layer"
     inkscape:label="ink_ext_XXXXXX"
     transform="matrix(1.25,0,0,-1.25,-2797.2649,3218.5183)"><g
       id="g4188"
       transform="matrix(0.06038634,-0.07970878,0.07970878,0.06038634,-684.13848,3255.3463)"
       inkscape:export-xdpi="34.080002"
       inkscape:export-ydpi="34.080002"><g
         id="g4194"
         transform="matrix(0.16615427,0,0,0.20316858,20846.128,15464.665)"><g
           id="g4196"
           clip-path="url(#clipPath4198)"><g
             id="g4202"
             transform="scale(2.01532,2.01532)"><path
               d="m 16269.1,10776.7 c -458.7,647.5 -1206.4,1034 -2000.5,1034 -114.2,0 -222,-12 -326.8,-29.4 -34.6,-129.8 -79,-253.1 -130.8,-370.7 143.5,40.9 295.2,64 458.2,64.1 644.5,0 1253.8,-295.6 1653.3,-796.1 -399.4,-500.6 -1008.8,-796.14 -1653.3,-796.19 l -0.5,0 c -467.6,0.1 -842.7,190.09 -1194.1,451.89 -43,-49 -85.6,-97.2 -127.2,-144 l -14.6,-16.4 c -58.7,-65.6 -116.2,-130.2 -172.5,-194.29 157.4,-198.13 300.9,-400.18 413.7,-614.79 l -902.5,0 c -79.9,-119.09 -149,-239.61 -205.1,-363.32 l 1264.1,0 c 53.4,-158.63 90.2,-324.76 105,-501.51 l -1511.9,0 c -7,-59.29 -11.8,-119.28 -11.8,-181.01 0,-61.13 2.6,-121.96 7.8,-182.35 l 1512.6,0 c -11.7,-170.5 -36.8,-338.36 -79.6,-501.46 l -1327.9,0 c 42.2,-125.79 95.1,-247.6 159.6,-363.37 l 1042.6,0 c -176.6,-419.09 -457.2,-790.44 -821.9,-1077 -650.3,510.89 -1038.1,1293.2 -1038.5,2124.83 -0.2,848 487.1,1458.33 1038.5,2081.87 0.2,-0.2 0.4,-0.5 0.6,-0.7 44.4,50.3 87.9,100.4 133,151 1.8,1.9 1.8,1.9 1.8,1.9 279.9,313.9 563.9,634.6 745.5,1015.4 118.6,248.1 194.4,520.9 194.5,835.1 0,593 -482.4,1075.4 -1075.4,1075.4 -593.1,0 -1075.5,-482.4 -1075.5,-1075.4 l 0,-0.1 0,0 c 0.1,-321.6 78.9,-600.4 202.4,-853.1 -291.5,157 -614.2,259.7 -991.1,259.7 -793.86,-0.2 -1541.53,-387.1 -1999.97,-1035.1 -41.18,-58.1 -41.18,-135.9 0,-194.1 458.34,-647.94 1206.01,-1034.87 1999.87,-1035.17 0.1,0 0.5,0 0.5,0 l 0.2,0 0.2,0 c 61.6,0 120.1,5.71 178.9,10.97 56.2,128.11 119.4,251.42 188.4,370.11 -116.9,-26.84 -237.8,-45 -367.3,-45 l -0.2,0 -0.5,0 c -644.4,0.25 -1253.49,295.69 -1652.78,796.19 399.29,500.4 1008.48,795.9 1653.28,796.1 467.1,0 842.6,-192.2 1195.8,-456.9 41.4,46.8 82.7,93.1 123.7,139 l 52.7,58.2 c 50.9,57.5 98.7,112.4 144.4,165.8 -214,302.8 -365,627.4 -365.2,1023.4 0,392.6 319.4,712 712.2,712 392.6,0 712,-319.4 712.1,-712 -0.2,-576.9 -317.9,-1003.5 -690.1,-1430 0,-0.5 0,-0.9 0,-1.3 -51.6,-59.1 -104.2,-118.1 -157.3,-177.6 -1.8,0 -1.8,-1.8 -1.8,-1.8 -295.7,-332 -595.7,-669.6 -829.6,-1045.76 -257.6,-414.28 -435.3,-875.05 -435.1,-1428.26 0.3,-994.38 485.2,-1931.06 1296.8,-2505.56 5.1,-3.57 10.9,-5.01 16.1,-7.99 5.5,-3.08 10.6,-5.56 16.3,-8.04 23.4,-10.32 47.7,-17.32 72.4,-17.32 0,0 0.1,0.05 0.2,0.05 0,0 0.1,-0.05 0.2,-0.05 24.6,0 49,7 72.4,17.32 5.7,2.48 10.8,4.96 16.3,8.04 5.2,2.98 11,4.42 16,7.99 811.4,574.2 1296.1,1510.33 1296.7,2504.17 0,0 0.1,0.15 0.1,0.25 0,0 -0.1,0.1 -0.1,0.14 0,0.3 0.1,0.65 0.1,1 0.1,343.07 -68.6,650.47 -181.6,933.65 -0.2,0.49 -0.4,0.94 -0.6,1.39 -70.8,176.94 -159.1,344.26 -259.6,504.58 268.2,-130.2 563.9,-212.67 903.7,-212.77 l 0.6,0 c 793.5,0 1541.2,386.64 1999.9,1034.07 20.2,28.3 30.9,64.4 30.9,99.2 0,34.7 -10.7,68.7 -30.9,97.1"
               style="fill:#e49838;fill-opacity:1;fill-rule:nonzero;stroke:none"
               id="path4210"
               inkscape:connector-curvature="0" /></g></g></g></g><text
       xml:space="preserve"
       style="font-style:normal;font-variant:normal;font-weight:normal;font-stretch:normal;font-size:80px;line-height:125%;font-family:'Kaushan Script';-inkscape-font-specification:'Kaushan Script, Normal';text-align:start;letter-spacing:0px;word-spacing:0px;writing-mode:lr-tb;text-anchor:start;fill:#e49838;fill-opacity:1;stroke:none;stroke-width:1px;stroke-linecap:butt;stroke-linejoin:miter;stroke-opacity:1;"
       x="2513.3333"
       y="-2477.333"
       id="text5453"
       sodipodi:linespacing="125%"
       transform="scale(1,-1)"><tspan
         sodipodi:role="line"
         id="tspan5455"
         x="2513.3333"
         y="-2477.333"
         style="font-style:normal;font-variant:normal;font-weight:normal;font-stretch:normal;font-size:100px;line-height:125%;font-family:'Kaushan Script';-inkscape-font-specification:'Kaushan Script, Normal';text-align:start;writing-mode:lr-tb;text-anchor:start;fill:#e49838;fill-opacity:1;">Gul<tspan
   style="font-style:normal;font-variant:normal;font-weight:normal;font-stretch:normal;font-size:120px;line-height:125%;font-family:'Kaushan Script';-inkscape-font-specification:'Kaushan Script, Normal';text-align:start;writing-mode:lr-tb;text-anchor:start;fill:#e49838;fill-opacity:1;"
   id="tspan5583">&amp;</tspan>V</tspan><tspan
         sodipodi:role="line"
         x="2513.3333"
         y="-2346.0098"
         id="tspan5457"
         style="font-style:normal;font-variant:normal;font-weight:normal;font-stretch:normal;font-size:100px;line-height:125%;font-family:'Kaushan Script';-inkscape-font-specification:'Kaushan Script, Normal';text-align:start;writing-mode:lr-tb;text-anchor:start;fill:#e49838;fill-opacity:1;"> KonCept  </tspan></text>
</g></svg>